<svg version="1.1" id="Layer_1" xmlns="http://www.w3.org/2000/svg" xmlns:xlink="http://www.w3.org/1999/xlink" x="0px" y="0px"
width="19.725px" height="12.199px" viewBox="0.875 0 19.725 12.199" enable-background="new 0.875 0 19.725 12.199"
xml:space="preserve">
<style>.iconcolor { fill: #ffffff; }</style>
<path class="iconcolor" fill="#D7C6B5" d="M18.419,0.039H4.746c-0.658,0-1.539,0.325-1.993,1.873C2.426,3.022,1.18,5.868,1.167,5.897L1.079,6.098
l0.088,0.201c0.013,0.029,1.259,2.875,1.586,3.986c0.456,1.547,1.335,1.872,1.993,1.872h13.673c1.11,0,2.014-0.903,2.014-2.014
v-8.09C20.433,0.942,19.529,0.039,18.419,0.039z M19.433,10.143c0,0.559-0.455,1.014-1.014,1.014H4.746
c-0.171,0-0.694,0-1.034-1.155C3.416,8.996,2.467,6.781,2.17,6.098c0.296-0.683,1.246-2.898,1.542-3.904
c0.339-1.155,0.862-1.155,1.034-1.155h13.673c0.559,0,1.014,0.455,1.014,1.014V10.143z M6.611,6.012V5.978
c0.216-0.041,0.387-0.159,0.512-0.354c0.126-0.195,0.188-0.437,0.188-0.727c0-0.44-0.118-0.761-0.355-0.962
C6.719,3.733,6.341,3.633,5.821,3.633H4.546V8.63h1.504c0.421,0,0.753-0.128,0.996-0.385C7.289,7.989,7.41,7.634,7.41,7.181
c0-0.321-0.062-0.579-0.188-0.772C7.098,6.214,6.894,6.083,6.611,6.012z M5.421,4.436h0.393c0.195,0,0.34,0.045,0.431,0.135
c0.091,0.09,0.137,0.238,0.137,0.446s-0.04,0.363-0.12,0.468C6.183,5.59,6.045,5.643,5.849,5.643H5.421V4.436z M6.322,7.639
C6.228,7.757,6.084,7.816,5.89,7.816H5.421V6.418h0.455c0.392,0,0.588,0.223,0.588,0.669C6.464,7.337,6.416,7.52,6.322,7.639z
 M8.891,3.612L7.653,8.63h0.93L8.87,7.369h1.303L10.46,8.63h0.933l-1.241-5.018H8.891z M9.055,6.545
C9.246,5.704,9.364,5.166,9.41,4.93c0.046-0.235,0.083-0.452,0.112-0.647c0.012,0.096,0.046,0.285,0.102,0.569
c0.056,0.283,0.092,0.46,0.107,0.531l0.267,1.162H9.055z M12.86,4.843c-0.153,0.312-0.23,0.746-0.23,1.302
c0,1.158,0.302,1.737,0.905,1.737c0.265,0,0.542-0.085,0.831-0.253v0.827c-0.244,0.161-0.556,0.242-0.937,0.242
c-0.562,0-0.995-0.224-1.297-0.672c-0.302-0.447-0.453-1.077-0.453-1.888s0.155-1.443,0.467-1.897
c0.311-0.454,0.743-0.68,1.297-0.68c0.183,0,0.357,0.025,0.524,0.075c0.168,0.05,0.347,0.138,0.538,0.263l-0.307,0.755
c-0.104-0.071-0.213-0.135-0.328-0.193c-0.117-0.059-0.243-0.087-0.38-0.087C13.225,4.375,13.015,4.531,12.86,4.843z M17.019,5.796
l1.169,2.833h-0.991l-0.82-2.136l-0.372,0.373V8.63h-0.93V3.633h0.93v2.478l0.324-0.749l0.852-1.729h0.994L17.019,5.796z"/>
</svg>
