<svg version="1.1" id="Layer_1" xmlns="http://www.w3.org/2000/svg" xmlns:xlink="http://www.w3.org/1999/xlink" x="0px" y="0px"
	 width="16.109px" height="16.109px" viewBox="0 0 16.109 16.109" enable-background="new 0 0 16.109 16.109" xml:space="preserve">
	<style>.iconcolor { fill: #666666; } </style>
<path class="iconcolor" fill="#D7C6B5" d="M8.054,0.054c-4.418,0-8,3.582-8,8c0,4.418,3.582,8,8,8c4.418,0,8-3.583,8-8
  	C16.052,3.636,12.473,0.054,8.054,0.054z M9.295,13.89H6.906v-2.308h2.389V13.89z M11.572,7.165
  	c-0.202,0.288-0.59,0.655-1.163,1.104L9.844,8.707C9.536,8.946,9.331,9.226,9.232,9.546c-0.064,0.201-0.1,0.516-0.104,0.941H6.962
  	c0.032-0.898,0.117-1.521,0.255-1.864C7.355,8.28,7.711,7.884,8.284,7.436l0.582-0.455c0.19-0.143,0.345-0.3,0.461-0.47
  	C9.54,6.218,9.645,5.896,9.645,5.544c0-0.404-0.116-0.773-0.354-1.106c-0.234-0.333-0.667-0.5-1.294-0.5
  	c-0.616,0-1.053,0.206-1.311,0.615C6.429,4.963,6.3,5.389,6.3,5.831H3.992c0.064-1.518,0.594-2.593,1.589-3.227
  	c0.628-0.405,1.4-0.607,2.316-0.607c1.205,0,2.205,0.288,3,0.862c0.797,0.575,1.193,1.427,1.193,2.556
  	C12.09,6.109,11.916,6.692,11.572,7.165z"/>
</svg>
